/* XPM */
static char * collectable2_xpm[] = {
"32 32 3 1",
" 	c #a0a0a0",
".	c gold",
"X	c white",
"                                ",
"                                ",
"                                ",
"                                ",
"                                ",
"                                ",
"                                ",
"                                ",
"                                ",
"                .   X           ",
"             .......X           ",
"           ..........X  X       ",
"          ...........XXX        ",
"          ..........XX.         ",
"         ..........X..X.        ",
"         .............X.        ",
"         ...............        ",
"        .................       ",
"         ...............        ",
"         ...............        ",
"         ...............        ",
"          .............         ",
"          .............         ",
"           ...........          ",
"             .......            ",
"                .               ",
"                                ",
"                                ",
"                                ",
"                                ",
"                                ",
"                                "};
