/* XPM */
static char * exit_xpm[] = {
"32 32 2 1",
" 	c #a0a0a0",
".	c green",
"                                ",
"                                ",
"                                ",
"   ..........................   ",
"   ..........................   ",
"   ..........................   ",
"   ..........................   ",
"   ....                         ",
"   ....                         ",
"   ....                         ",
"   ....                         ",
"   ....                         ",
"   ....                         ",
"   ....                         ",
"   ....                         ",
"   .....................        ",
"   .....................        ",
"   .....................        ",
"   .....................        ",
"   ....                         ",
"   ....                         ",
"   ....                         ",
"   ....                         ",
"   ....                         ",
"   ....                         ",
"   ..........................   ",
"   ..........................   ",
"   ..........................   ",
"   ..........................   ",
"                                ",
"                                ",
"                                "};
