/* XPM */
static char * patrol_xpm[] = {
"32 32 5 1",
" 	c #a0a0a0",
".	c red",
"X	c white",
"o	c silver",
"O	c brown",
"                                ",
"                                ",
"                                ",
"                                ",
"                                ",
"                                ",
"                                ",
"              ...               ",
"             .   .              ",
"            XXXXXXX             ",
"            XXX XXX             ",
"         o  .     .             ",
"         o   .   .              ",
"         o    ...               ",
"         o     .                ",
"         o     .                ",
"        OOO    .    OOO         ",
"         ..........OOOOO        ",
"         O     .   OOOOO        ",
"               .   OOOOO        ",
"               .    OOO         ",
"               .                ",
"               .                ",
"               .                ",
"              ..                ",
"             .  .               ",
"           ..   .               ",
"          .      .              ",
"         .       ....           ",
"                                ",
"                                ",
"                                "};
