/* XPM */
static char * player_xpm[] = {
"32 32 3 1",
" 	c #a0a0a0",
".	c black",
"X	c #ecbe78",
"                                ",
"                                ",
"                                ",
"                                ",
"              ...               ",
"             .XXX.              ",
"            .XXXXX.             ",
"           .XX.XX.X.            ",
"           .XXXXXXX.            ",
"           .XXXX.XX.            ",
"            .XX..X.             ",
"             .XXX.              ",
"              ...    .          ",
"               .     .          ",
"               .     .          ",
"         .............          ",
"         .     .                ",
"         .     .                ",
"         .     .                ",
"               .                ",
"               .                ",
"               .                ",
"               .                ",
"              . .               ",
"             .   .              ",
"         .  .     .             ",
"         ...       ...          ",
"                     .          ",
"                                ",
"                                ",
"                                ",
"                                "};
